<svg xmlns="http://www.w3.org/2000/svg" id="Camada_2" viewBox="0 0 800 104"><defs><style>.cls-1{fill:#fff;}.cls-2{fill:#f08160;}</style></defs><g id="Camada_1-2"><g><path class="cls-1" d="M126.32,60.22v40.84h-25.26V60.22c0-6.98-5.65-12.63-12.63-12.63s-12.63,5.65-12.63,12.63v40.83h-25.27V60.22c0-6.98-5.65-12.63-12.63-12.63s-12.63,5.65-12.63,12.63v40.84H0V25.26H18.95l1.38,1.38c5.26-2.76,11.22-4.32,17.57-4.32,9.7,0,18.56,3.64,25.27,9.64,6.71-6,15.56-9.64,25.26-9.64,19.99,0,36.37,15.49,37.79,35.11,.06,.92,.09,1.85,.09,2.79Z"></path><path class="cls-1" d="M298.9,25.26l-6.57,25.26c-2.19-1.83-5.01-2.93-8.09-2.93-6.98,0-12.63,5.65-12.63,12.63v40.84h-25.27V25.26h18.95l1.38,1.38c5.26-2.76,11.22-4.32,17.57-4.32,5.2,0,10.15,1.04,14.65,2.94Z"></path><path class="cls-1" d="M208.43,25.26l-3.89,3.89c-6.48-4.31-14.25-6.83-22.61-6.83-22.55,0-40.84,18.28-40.84,40.84s18.28,40.84,40.84,40.84c7.35,0,14.23-1.95,20.19-5.35v2.4h25.26V25.26h-18.95Zm-23.69,55.26c-9.59,0-17.37-7.78-17.37-17.37s7.78-17.37,17.37-17.37,17.37,7.78,17.37,17.37-7.78,17.37-17.37,17.37Z"></path><path class="cls-1" d="M675.81,25.26l-3.89,3.89c-6.48-4.31-14.25-6.83-22.61-6.83-22.55,0-40.84,18.28-40.84,40.84s18.28,40.84,40.84,40.84c7.35,0,14.23-1.95,20.19-5.35v2.4h25.26V25.26h-18.95Zm-23.69,55.26c-9.59,0-17.37-7.78-17.37-17.37s7.78-17.37,17.37-17.37,17.37,7.78,17.37,17.37-7.78,17.37-17.37,17.37Z"></path><path class="cls-1" d="M347.35,50.53v22.03c0,3.53,2.86,6.39,6.39,6.39h12.55v22.11h-22.1c-12.21,0-22.11-9.89-22.11-22.11v-28.42h-12.63V25.26h12.76L325.24,0h22.11V25.26h18.94l-6.31,25.27h-12.63Z"></path><path class="cls-1" d="M581.07,72.56c0,3.53,2.86,6.39,6.39,6.39h6.24v22.11h-15.79c-12.21,0-22.11-9.9-22.11-22.11V0h25.27V72.56Z"></path><path class="cls-1" d="M462.23,69.48c.33-2.06,.5-4.17,.5-6.32,0-3.25-.4-6.43-1.14-9.47-4.38-17.99-20.97-31.37-40.77-31.37s-36.39,13.38-40.77,31.37c-.74,3.04-1.14,6.22-1.14,9.47,0,2.15,.18,4.26,.5,6.32,.34,2.17,.87,4.27,1.54,6.31,5.45,16.37,21.24,28.21,39.85,28.21s34.4-11.83,39.85-28.21h-25.14c-3.48,4.52-8.78,7.41-14.71,7.41s-11.24-2.89-14.71-7.41c-1.43-1.85-2.55-3.98-3.27-6.31h59.38Zm-58.1-15.79c3.2-6.3,9.48-10.57,16.7-10.57s13.51,4.27,16.7,10.57h-33.41Z"></path><path class="cls-1" d="M759.16,22.32c-7.34,0-14.23,1.94-20.19,5.34V0h-25.27V101.06h25.26v-2.4c5.96,3.4,12.84,5.35,20.19,5.35,22.55,0,40.84-18.28,40.84-40.84s-18.28-40.84-40.84-40.84Zm-2.82,58.2c-9.59,0-17.37-7.78-17.37-17.37s7.78-17.37,17.37-17.37,17.37,7.78,17.37,17.37-7.78,17.37-17.37,17.37Z"></path><circle class="cls-2" cx="505.26" cy="25.26" r="25.26" transform="translate(64.38 273.36) rotate(-32.23)"></circle></g></g></svg>